<svg viewBox="0 0 1000 640" xmlns="http://www.w3.org/2000/svg" font-family="'Georgia', serif" overflow="hidden">
  <defs>
    <linearGradient id="bg2" x1="0%" y1="0%" x2="100%" y2="100%">
      <stop offset="0%" style="stop-color:#050D18"/>
      <stop offset="100%" style="stop-color:#0A1628"/>
    </linearGradient>
  </defs>

  <rect width="1000" height="640" fill="url(#bg2)"/>
  <rect x="0" y="0" width="1000" height="3" fill="#C9A227"/>

  <!-- Title -->
  <text x="500" y="48" text-anchor="middle" fill="#E5E4E2" font-size="24" font-weight="bold" letter-spacing="4">ASSUMPTION VALIDITY MONITOR</text>
  <text x="500" y="72" text-anchor="middle" fill="#94A3B8" font-size="12" letter-spacing="3">SIX SIGNALS · ONE TRUTH · CONTINUOUS EVALUATION</text>
  <line x1="60" y1="85" x2="940" y2="85" stroke="#C9A227" stroke-width="1" opacity="0.5"/>

  <!-- Hexagon center: 500, 350 / radius 190 -->
  <!-- Vertices:
    Top:          500, 160
    Top-Right:    665, 255
    Bottom-Right: 665, 445
    Bottom:       500, 540
    Bottom-Left:  335, 445
    Top-Left:     335, 255
  -->

  <!-- Grid rings -->
  <!-- 25% -->
  <polygon points="500,303 541,326 541,374 500,398 459,374 459,326" fill="none" stroke="#1E293B" stroke-width="1"/>
  <!-- 50% -->
  <polygon points="500,255 583,303 583,398 500,445 417,398 417,303" fill="none" stroke="#1E293B" stroke-width="1"/>
  <!-- 75% -->
  <polygon points="500,208 624,279 624,421 500,493 376,421 376,279" fill="none" stroke="#1E293B" stroke-width="1"/>
  <!-- 100% outer -->
  <polygon points="500,160 665,255 665,445 500,540 335,445 335,255" fill="none" stroke="#1E293B" stroke-width="1.5"/>

  <!-- Axis lines from center -->
  <line x1="500" y1="350" x2="500" y2="160" stroke="#1E293B" stroke-width="1"/>
  <line x1="500" y1="350" x2="665" y2="255" stroke="#1E293B" stroke-width="1"/>
  <line x1="500" y1="350" x2="665" y2="445" stroke="#1E293B" stroke-width="1"/>
  <line x1="500" y1="350" x2="500" y2="540" stroke="#1E293B" stroke-width="1"/>
  <line x1="500" y1="350" x2="335" y2="445" stroke="#1E293B" stroke-width="1"/>
  <line x1="500" y1="350" x2="335" y2="255" stroke="#1E293B" stroke-width="1"/>

  <!-- Data polygon (82%, 71%, 65%, 78%, 88%, 74%)
    Top (82%):          500, 160 + (1-0.82)*190 = 160+34 = 194  → 500, 194
    Top-Right (71%):    500+0.71*165, 255+0.71*(-95) = 500+117, 255-67 = 617, 188  wait let me recalc

    Center: 500,350
    Vertex directions (from center):
    Top:         dx=0,   dy=-190  → at 100%: 500,160
    Top-Right:   dx=+165, dy=-95  → at 100%: 665,255
    Bot-Right:   dx=+165, dy=+95  → at 100%: 665,445
    Bottom:      dx=0,   dy=+190  → at 100%: 500,540
    Bot-Left:    dx=-165, dy=+95  → at 100%: 335,445
    Top-Left:    dx=-165, dy=-95  → at 100%: 335,255

    Prob(82%):      500+0*0.82, 350-190*0.82 = 500, 350-155.8 = 500, 194
    SigCoh(71%):    500+165*0.71, 350-95*0.71 = 500+117, 350-67 = 617, 283
    RiskExp(65%):   500+165*0.65, 350+95*0.65 = 500+107, 350+62 = 607, 412
    StressRes(78%): 500+0*0.78, 350+190*0.78 = 500, 350+148 = 500, 498
    TrendPer(88%):  500-165*0.88, 350+95*0.88 = 500-145, 350+84 = 355, 434
    LogicCon(74%):  500-165*0.74, 350-95*0.74 = 500-122, 350-70 = 378, 280
  -->
  <polygon points="500,194 617,283 607,412 500,498 355,434 378,280"
           fill="#C9A227" fill-opacity="0.12" stroke="#C9A227" stroke-width="2"/>

  <!-- Signal endpoint dots -->
  <circle cx="500" cy="194" r="6" fill="#C9A227"/>
  <circle cx="617" cy="283" r="6" fill="#3B82F6"/>
  <circle cx="607" cy="412" r="6" fill="#EF4444"/>
  <circle cx="500" cy="498" r="6" fill="#10B981"/>
  <circle cx="355" cy="434" r="6" fill="#8B5CF6"/>
  <circle cx="378" cy="280" r="6" fill="#06B6D4"/>

  <!-- Center dot -->
  <circle cx="500" cy="350" r="5" fill="#C9A227" opacity="0.6"/>

  <!-- ========== LABELS — well spaced, nothing overlapping ========== -->

  <!-- TOP: Probability Score -->
  <rect x="390" y="100" width="220" height="50" rx="6" fill="#0A1628" stroke="#C9A227" stroke-width="1"/>
  <text x="500" y="121" text-anchor="middle" fill="#C9A227" font-size="11" font-weight="bold" letter-spacing="1">PROBABILITY SCORE</text>
  <text x="500" y="140" text-anchor="middle" fill="#E5E4E2" font-size="18" font-weight="bold">82%</text>
  <line x1="500" y1="150" x2="500" y2="192" stroke="#C9A227" stroke-width="1" stroke-dasharray="3,2" opacity="0.5"/>

  <!-- TOP RIGHT: Signal Coherence -->
  <rect x="680" y="210" width="210" height="50" rx="6" fill="#0A1628" stroke="#3B82F6" stroke-width="1"/>
  <text x="785" y="231" text-anchor="middle" fill="#3B82F6" font-size="11" font-weight="bold" letter-spacing="1">SIGNAL COHERENCE</text>
  <text x="785" y="250" text-anchor="middle" fill="#E5E4E2" font-size="18" font-weight="bold">71%</text>
  <line x1="680" y1="235" x2="619" y2="285" stroke="#3B82F6" stroke-width="1" stroke-dasharray="3,2" opacity="0.5"/>

  <!-- BOTTOM RIGHT: Risk Exposure -->
  <rect x="680" y="390" width="210" height="55" rx="6" fill="#0A1628" stroke="#EF4444" stroke-width="1"/>
  <text x="785" y="411" text-anchor="middle" fill="#EF4444" font-size="11" font-weight="bold" letter-spacing="1">RISK EXPOSURE</text>
  <text x="785" y="430" text-anchor="middle" fill="#E5E4E2" font-size="18" font-weight="bold">65%</text>
  <text x="785" y="446" text-anchor="middle" fill="#EF4444" font-size="9">⚠ Below threshold</text>
  <line x1="680" y1="415" x2="609" y2="413" stroke="#EF4444" stroke-width="1" stroke-dasharray="3,2" opacity="0.5"/>

  <!-- BOTTOM: Stress Resilience -->
  <rect x="390" y="516" width="220" height="50" rx="6" fill="#0A1628" stroke="#10B981" stroke-width="1"/>
  <text x="500" y="537" text-anchor="middle" fill="#10B981" font-size="11" font-weight="bold" letter-spacing="1">STRESS RESILIENCE</text>
  <text x="500" y="556" text-anchor="middle" fill="#E5E4E2" font-size="18" font-weight="bold">78%</text>
  <line x1="500" y1="516" x2="500" y2="500" stroke="#10B981" stroke-width="1" stroke-dasharray="3,2" opacity="0.5"/>

  <!-- BOTTOM LEFT: Trend Persistence -->
  <rect x="110" y="390" width="210" height="55" rx="6" fill="#0A1628" stroke="#8B5CF6" stroke-width="1"/>
  <text x="215" y="411" text-anchor="middle" fill="#8B5CF6" font-size="11" font-weight="bold" letter-spacing="1">TREND PERSISTENCE</text>
  <text x="215" y="430" text-anchor="middle" fill="#E5E4E2" font-size="18" font-weight="bold">88%</text>
  <text x="215" y="446" text-anchor="middle" fill="#10B981" font-size="9">✓ Strong signal</text>
  <line x1="320" y1="415" x2="353" y2="435" stroke="#8B5CF6" stroke-width="1" stroke-dasharray="3,2" opacity="0.5"/>

  <!-- TOP LEFT: Logic Consistency -->
  <rect x="110" y="210" width="210" height="50" rx="6" fill="#0A1628" stroke="#06B6D4" stroke-width="1"/>
  <text x="215" y="231" text-anchor="middle" fill="#06B6D4" font-size="11" font-weight="bold" letter-spacing="1">LOGIC CONSISTENCY</text>
  <text x="215" y="250" text-anchor="middle" fill="#E5E4E2" font-size="18" font-weight="bold">74%</text>
  <line x1="320" y1="235" x2="376" y2="281" stroke="#06B6D4" stroke-width="1" stroke-dasharray="3,2" opacity="0.5"/>

  <!-- Bottom bar -->
  <rect x="0" y="610" width="1000" height="30" fill="#050D18"/>
  <text x="500" y="630" text-anchor="middle" fill="#475569" font-size="10" letter-spacing="2">OMNIX QUANTUM  ·  omnixquantum.net  ·  AVM Continuous Signal Evaluation</text>
</svg>
