<svg viewBox="0 0 1000 700" xmlns="http://www.w3.org/2000/svg" font-family="'Georgia', serif" overflow="hidden">
  <defs>
    <linearGradient id="bg3" x1="0%" y1="0%" x2="100%" y2="100%">
      <stop offset="0%" style="stop-color:#050D18"/>
      <stop offset="100%" style="stop-color:#0A1628"/>
    </linearGradient>
  </defs>

  <rect width="1000" height="700" fill="url(#bg3)"/>
  <rect x="0" y="0" width="1000" height="3" fill="#C9A227"/>

  <!-- Title -->
  <text x="500" y="48" text-anchor="middle" fill="#E5E4E2" font-size="24" font-weight="bold" letter-spacing="4">OMNIX QUANTUM — GOVERNANCE ARCHITECTURE</text>
  <text x="500" y="72" text-anchor="middle" fill="#94A3B8" font-size="12" letter-spacing="3">FROM INPUT TO IRREFUTABLE EVIDENCE</text>
  <line x1="60" y1="85" x2="940" y2="85" stroke="#C9A227" stroke-width="1" opacity="0.5"/>

  <!-- ===== LAYER 1: INPUT ===== -->
  <text x="500" y="112" text-anchor="middle" fill="#475569" font-size="10" letter-spacing="4">INPUT LAYER</text>
  <rect x="60" y="120" width="880" height="70" rx="8" fill="#0F1A2E" stroke="#1E293B" stroke-width="1.5"/>

  <rect x="80" y="136" width="185" height="38" rx="5" fill="#1E293B"/>
  <text x="172" y="159" text-anchor="middle" fill="#94A3B8" font-size="11">Market Data</text>

  <rect x="285" y="136" width="185" height="38" rx="5" fill="#1E293B"/>
  <text x="377" y="159" text-anchor="middle" fill="#94A3B8" font-size="11">Asset Signals</text>

  <rect x="490" y="136" width="185" height="38" rx="5" fill="#1E293B"/>
  <text x="582" y="159" text-anchor="middle" fill="#94A3B8" font-size="11">Regulatory Context</text>

  <rect x="695" y="136" width="225" height="38" rx="5" fill="#1E293B"/>
  <text x="807" y="159" text-anchor="middle" fill="#94A3B8" font-size="11">Macroeconomic State</text>

  <!-- Arrow Layer 1 → Layer 2 -->
  <line x1="500" y1="190" x2="500" y2="218" stroke="#C9A227" stroke-width="2" opacity="0.6"/>
  <polygon points="493,215 500,226 507,215" fill="#C9A227" opacity="0.6"/>

  <!-- ===== LAYER 2: CAG ===== -->
  <text x="500" y="245" text-anchor="middle" fill="#475569" font-size="10" letter-spacing="4">ADMISSION LAYER</text>
  <rect x="200" y="252" width="600" height="80" rx="8" fill="#0F1A14" stroke="#C9A227" stroke-width="2"/>
  <text x="500" y="283" text-anchor="middle" fill="#C9A227" font-size="16" font-weight="bold" letter-spacing="2">CONTEXT ADMISSION GATE</text>
  <text x="500" y="305" text-anchor="middle" fill="#94A3B8" font-size="11">Volatility · Correlation · Liquidity · Macro Context</text>
  <text x="500" y="323" text-anchor="middle" fill="#64748B" font-size="10">Simultaneous 4-axis evaluation → Admission Score 0–100 → SESSION_ADMITTED / SESSION_REJECTED</text>

  <!-- Arrow Layer 2 → Layer 3 -->
  <line x1="500" y1="332" x2="500" y2="358" stroke="#C9A227" stroke-width="2" opacity="0.6"/>
  <polygon points="493,355 500,366 507,355" fill="#C9A227" opacity="0.6"/>

  <!-- ===== LAYER 3: MONITORING ===== -->
  <text x="500" y="384" text-anchor="middle" fill="#475569" font-size="10" letter-spacing="4">CONTINUOUS MONITORING LAYER</text>

  <!-- AVM -->
  <rect x="60" y="392" width="260" height="100" rx="8" fill="#071528" stroke="#3B82F6" stroke-width="1.5"/>
  <text x="190" y="418" text-anchor="middle" fill="#3B82F6" font-size="13" font-weight="bold" letter-spacing="1">AVM</text>
  <text x="190" y="438" text-anchor="middle" fill="#94A3B8" font-size="10">Assumption Validity Monitor</text>
  <text x="190" y="456" text-anchor="middle" fill="#64748B" font-size="9">6 signals · real-time · continuous</text>
  <text x="190" y="472" text-anchor="middle" fill="#64748B" font-size="9">Auto-recalibration included</text>
  <text x="190" y="486" text-anchor="middle" fill="#64748B" font-size="9">Drift detection before threshold</text>

  <!-- SRR -->
  <rect x="370" y="392" width="260" height="100" rx="8" fill="#1a0808" stroke="#EF4444" stroke-width="1.5"/>
  <text x="500" y="418" text-anchor="middle" fill="#EF4444" font-size="13" font-weight="bold" letter-spacing="1">SYSTEMIC RISK ROUTER</text>
  <text x="500" y="438" text-anchor="middle" fill="#94A3B8" font-size="10">Cross-position interaction analysis</text>
  <text x="500" y="456" text-anchor="middle" fill="#64748B" font-size="9">Contagion detection</text>
  <text x="500" y="472" text-anchor="middle" fill="#64748B" font-size="9">Pre-threshold intervention</text>
  <text x="500" y="486" text-anchor="middle" fill="#64748B" font-size="9">Systemic emergence monitoring</text>

  <!-- MCM -->
  <rect x="680" y="392" width="260" height="100" rx="8" fill="#120828" stroke="#8B5CF6" stroke-width="1.5"/>
  <text x="810" y="418" text-anchor="middle" fill="#8B5CF6" font-size="13" font-weight="bold" letter-spacing="1">META-COHERENCE MONITOR</text>
  <text x="810" y="438" text-anchor="middle" fill="#94A3B8" font-size="10">Framework integrity monitoring</text>
  <text x="810" y="456" text-anchor="middle" fill="#64748B" font-size="9">Second-order drift detection</text>
  <text x="810" y="472" text-anchor="middle" fill="#64748B" font-size="9">Evaluation baseline stability</text>
  <text x="810" y="486" text-anchor="middle" fill="#64748B" font-size="9">Logic coherence preservation</text>

  <!-- Arrow Layer 3 → Layer 4 -->
  <line x1="500" y1="492" x2="500" y2="518" stroke="#C9A227" stroke-width="2" opacity="0.6"/>
  <polygon points="493,515 500,526 507,515" fill="#C9A227" opacity="0.6"/>

  <!-- ===== LAYER 4: EVIDENCE ===== -->
  <text x="500" y="544" text-anchor="middle" fill="#475569" font-size="10" letter-spacing="4">EVIDENCE &amp; CONTROL LAYER</text>

  <!-- FAT -->
  <rect x="60" y="552" width="260" height="90" rx="8" fill="#0F1A14" stroke="#C9A227" stroke-width="1.5"/>
  <text x="190" y="576" text-anchor="middle" fill="#C9A227" font-size="12" font-weight="bold">FORENSIC AUDIT TRAIL</text>
  <text x="190" y="596" text-anchor="middle" fill="#94A3B8" font-size="10">4 rounds · immutable · irrefutable</text>
  <text x="190" y="614" text-anchor="middle" fill="#64748B" font-size="9">ML-DSA-65 signed receipts</text>
  <text x="190" y="630" text-anchor="middle" fill="#64748B" font-size="9">Cross-chain verification</text>

  <!-- Anti-Replay -->
  <rect x="370" y="552" width="260" height="90" rx="8" fill="#0F1A20" stroke="#06B6D4" stroke-width="1.5"/>
  <text x="500" y="576" text-anchor="middle" fill="#06B6D4" font-size="12" font-weight="bold">ANTI-REPLAY PROTECTION</text>
  <text x="500" y="596" text-anchor="middle" fill="#94A3B8" font-size="10">Each decision: unique &amp; irrepeatible</text>
  <text x="500" y="614" text-anchor="middle" fill="#64748B" font-size="9">Temporal + systemic binding</text>
  <text x="500" y="630" text-anchor="middle" fill="#64748B" font-size="9">Replay attack prevention</text>

  <!-- Human Override -->
  <rect x="680" y="552" width="260" height="90" rx="8" fill="#071512" stroke="#10B981" stroke-width="1.5"/>
  <text x="810" y="576" text-anchor="middle" fill="#10B981" font-size="12" font-weight="bold">HUMAN OVERRIDE</text>
  <text x="810" y="596" text-anchor="middle" fill="#94A3B8" font-size="10">EU AI Act Art.14 compliant</text>
  <text x="810" y="614" text-anchor="middle" fill="#64748B" font-size="9">PQC-signed · fully auditable</text>
  <text x="810" y="630" text-anchor="middle" fill="#64748B" font-size="9">Granular authority control</text>

  <!-- Bottom bar -->
  <rect x="0" y="668" width="1000" height="32" fill="#050D18"/>
  <text x="500" y="688" text-anchor="middle" fill="#475569" font-size="10" letter-spacing="2">OMNIX QUANTUM  ·  omnixquantum.net  ·  Post-Quantum Governance Architecture</text>
</svg>
