<svg viewBox="0 0 1000 620" xmlns="http://www.w3.org/2000/svg" font-family="'Georgia', serif">
  <defs>
    <linearGradient id="bg5" x1="0%" y1="0%" x2="100%" y2="100%">
      <stop offset="0%" style="stop-color:#050D18"/>
      <stop offset="100%" style="stop-color:#0A1628"/>
    </linearGradient>
  </defs>

  <rect width="1000" height="620" fill="url(#bg5)"/>
  <rect x="0" y="0" width="1000" height="3" fill="#C9A227"/>

  <!-- Title -->
  <text x="500" y="48" text-anchor="middle" fill="#E5E4E2" font-size="24" font-weight="bold" letter-spacing="4">FORENSIC AUDIT TRAIL</text>
  <text x="500" y="72" text-anchor="middle" fill="#94A3B8" font-size="12" letter-spacing="3">FOUR ROUNDS FROM DECISION TO IRREFUTABLE EVIDENCE</text>
  <line x1="60" y1="85" x2="940" y2="85" stroke="#C9A227" stroke-width="1" opacity="0.5"/>

  <!-- ===== FOUR ROUND BOXES ===== -->

  <!-- Round 1 -->
  <rect x="60" y="110" width="195" height="200" rx="10" fill="#0A1A14" stroke="#C9A227" stroke-width="2"/>
  <rect x="60" y="110" width="195" height="50" rx="10" fill="#0F2214"/>
  <rect x="60" y="145" width="195" height="15" fill="#0F2214"/>
  <circle cx="157" cy="135" r="18" fill="#0A1628" stroke="#C9A227" stroke-width="2"/>
  <text x="157" y="141" text-anchor="middle" fill="#C9A227" font-size="16" font-weight="bold">1</text>
  <text x="157" y="178" text-anchor="middle" fill="#C9A227" font-size="12" font-weight="bold">REAL-TIME</text>
  <text x="157" y="196" text-anchor="middle" fill="#C9A227" font-size="12" font-weight="bold">CAPTURE</text>
  <line x1="80" y1="210" x2="235" y2="210" stroke="#1E293B" stroke-width="1"/>
  <text x="157" y="230" text-anchor="middle" fill="#94A3B8" font-size="10">Complete state snapshot</text>
  <text x="157" y="248" text-anchor="middle" fill="#94A3B8" font-size="10">at decision moment</text>
  <text x="157" y="266" text-anchor="middle" fill="#64748B" font-size="9">Millisecond precision timestamp</text>
  <text x="157" y="284" text-anchor="middle" fill="#64748B" font-size="9">All inputs · all signals · all context</text>
  <text x="157" y="300" text-anchor="middle" fill="#64748B" font-size="9">No selection · complete capture</text>

  <!-- Arrow 1→2 -->
  <line x1="255" y1="210" x2="285" y2="210" stroke="#C9A227" stroke-width="2" opacity="0.7"/>
  <polygon points="282,204 295,210 282,216" fill="#C9A227" opacity="0.7"/>

  <!-- Round 2 -->
  <rect x="295" y="110" width="195" height="200" rx="10" fill="#07142A" stroke="#3B82F6" stroke-width="2"/>
  <rect x="295" y="110" width="195" height="50" rx="10" fill="#0A1A38"/>
  <rect x="295" y="145" width="195" height="15" fill="#0A1A38"/>
  <circle cx="392" cy="135" r="18" fill="#0A1628" stroke="#3B82F6" stroke-width="2"/>
  <text x="392" y="141" text-anchor="middle" fill="#3B82F6" font-size="16" font-weight="bold">2</text>
  <text x="392" y="178" text-anchor="middle" fill="#3B82F6" font-size="12" font-weight="bold">POST-QUANTUM</text>
  <text x="392" y="196" text-anchor="middle" fill="#3B82F6" font-size="12" font-weight="bold">SIGNATURE</text>
  <line x1="315" y1="210" x2="470" y2="210" stroke="#1E293B" stroke-width="1"/>
  <text x="392" y="230" text-anchor="middle" fill="#94A3B8" font-size="10">ML-DSA-65 signing</text>
  <text x="392" y="248" text-anchor="middle" fill="#94A3B8" font-size="10">applied immediately</text>
  <text x="392" y="266" text-anchor="middle" fill="#64748B" font-size="9">Quantum-resistant algorithm</text>
  <text x="392" y="284" text-anchor="middle" fill="#64748B" font-size="9">Modification: mathematically impossible</text>
  <text x="392" y="300" text-anchor="middle" fill="#64748B" font-size="9">Valid in 2035 · valid in 2045</text>

  <!-- Arrow 2→3 -->
  <line x1="490" y1="210" x2="520" y2="210" stroke="#3B82F6" stroke-width="2" opacity="0.7"/>
  <polygon points="517,204 530,210 517,216" fill="#3B82F6" opacity="0.7"/>

  <!-- Round 3 -->
  <rect x="530" y="110" width="195" height="200" rx="10" fill="#0A1428" stroke="#8B5CF6" stroke-width="2"/>
  <rect x="530" y="110" width="195" height="50" rx="10" fill="#120A38"/>
  <rect x="530" y="145" width="195" height="15" fill="#120A38"/>
  <circle cx="627" cy="135" r="18" fill="#0A1628" stroke="#8B5CF6" stroke-width="2"/>
  <text x="627" y="141" text-anchor="middle" fill="#8B5CF6" font-size="16" font-weight="bold">3</text>
  <text x="627" y="178" text-anchor="middle" fill="#8B5CF6" font-size="12" font-weight="bold">CHAIN</text>
  <text x="627" y="196" text-anchor="middle" fill="#8B5CF6" font-size="12" font-weight="bold">VERIFICATION</text>
  <line x1="550" y1="210" x2="705" y2="210" stroke="#1E293B" stroke-width="1"/>
  <text x="627" y="230" text-anchor="middle" fill="#94A3B8" font-size="10">Cross-reference with</text>
  <text x="627" y="248" text-anchor="middle" fill="#94A3B8" font-size="10">all previous receipts</text>
  <text x="627" y="266" text-anchor="middle" fill="#64748B" font-size="9">Tamper-evident chain</text>
  <text x="627" y="284" text-anchor="middle" fill="#64748B" font-size="9">Modification detected across chain</text>
  <text x="627" y="300" text-anchor="middle" fill="#64748B" font-size="9">History cannot be rewritten</text>

  <!-- Arrow 3→4 -->
  <line x1="725" y1="210" x2="755" y2="210" stroke="#8B5CF6" stroke-width="2" opacity="0.7"/>
  <polygon points="752,204 765,210 752,216" fill="#8B5CF6" opacity="0.7"/>

  <!-- Round 4 -->
  <rect x="765" y="110" width="175" height="200" rx="10" fill="#0A140A" stroke="#10B981" stroke-width="2"/>
  <rect x="765" y="110" width="175" height="50" rx="10" fill="#061A0A"/>
  <rect x="765" y="145" width="175" height="15" fill="#061A0A"/>
  <circle cx="852" cy="135" r="18" fill="#0A1628" stroke="#10B981" stroke-width="2"/>
  <text x="852" y="141" text-anchor="middle" fill="#10B981" font-size="16" font-weight="bold">4</text>
  <text x="852" y="178" text-anchor="middle" fill="#10B981" font-size="12" font-weight="bold">FORENSIC</text>
  <text x="852" y="196" text-anchor="middle" fill="#10B981" font-size="12" font-weight="bold">ARCHIVAL</text>
  <line x1="785" y1="210" x2="920" y2="210" stroke="#1E293B" stroke-width="1"/>
  <text x="852" y="230" text-anchor="middle" fill="#94A3B8" font-size="10">Long-term preservation</text>
  <text x="852" y="248" text-anchor="middle" fill="#94A3B8" font-size="10">with future-proof standards</text>
  <text x="852" y="266" text-anchor="middle" fill="#64748B" font-size="9">Algorithm metadata stored</text>
  <text x="852" y="284" text-anchor="middle" fill="#64748B" font-size="9">Verification instructions included</text>
  <text x="852" y="300" text-anchor="middle" fill="#64748B" font-size="9">Regulatory standard references</text>

  <!-- ===== DECISION RECEIPT STRUCTURE ===== -->
  <text x="500" y="348" text-anchor="middle" fill="#475569" font-size="10" letter-spacing="4">DECISION RECEIPT — CONTENT STRUCTURE</text>
  <rect x="60" y="358" width="880" height="120" rx="10" fill="#0A1628" stroke="#C9A227" stroke-width="1.5"/>

  <!-- 5 columns inside the receipt -->
  <rect x="80" y="374" width="155" height="88" rx="5" fill="#0F1A2E"/>
  <text x="157" y="394" text-anchor="middle" fill="#C9A227" font-size="10" font-weight="bold">DECISION</text>
  <text x="157" y="408" text-anchor="middle" fill="#64748B" font-size="9">What · Why · Output</text>
  <text x="157" y="422" text-anchor="middle" fill="#64748B" font-size="9">Domain · Authority</text>
  <text x="157" y="436" text-anchor="middle" fill="#64748B" font-size="9">Governing principles</text>
  <text x="157" y="450" text-anchor="middle" fill="#64748B" font-size="9">Session reference</text>

  <rect x="252" y="374" width="155" height="88" rx="5" fill="#0F1A2E"/>
  <text x="329" y="394" text-anchor="middle" fill="#3B82F6" font-size="10" font-weight="bold">SIGNAL STATE</text>
  <text x="329" y="408" text-anchor="middle" fill="#64748B" font-size="9">6 AVM values at t=0</text>
  <text x="329" y="422" text-anchor="middle" fill="#64748B" font-size="9">CAG admission score</text>
  <text x="329" y="436" text-anchor="middle" fill="#64748B" font-size="9">SRR status</text>
  <text x="329" y="450" text-anchor="middle" fill="#64748B" font-size="9">MCM coherence index</text>

  <rect x="424" y="374" width="155" height="88" rx="5" fill="#0F1A2E"/>
  <text x="501" y="394" text-anchor="middle" fill="#10B981" font-size="10" font-weight="bold">TIMESTAMP</text>
  <text x="501" y="408" text-anchor="middle" fill="#64748B" font-size="9">±1ms precision</text>
  <text x="501" y="422" text-anchor="middle" fill="#64748B" font-size="9">Verified time source</text>
  <text x="501" y="436" text-anchor="middle" fill="#64748B" font-size="9">UTC synchronized</text>
  <text x="501" y="450" text-anchor="middle" fill="#64748B" font-size="9">Audit-grade reference</text>

  <rect x="596" y="374" width="155" height="88" rx="5" fill="#0F1A2E"/>
  <text x="673" y="394" text-anchor="middle" fill="#8B5CF6" font-size="10" font-weight="bold">CHAIN REF</text>
  <text x="673" y="408" text-anchor="middle" fill="#64748B" font-size="9">Previous receipt hash</text>
  <text x="673" y="422" text-anchor="middle" fill="#64748B" font-size="9">Sequence integrity</text>
  <text x="673" y="436" text-anchor="middle" fill="#64748B" font-size="9">Gap detection</text>
  <text x="673" y="450" text-anchor="middle" fill="#64748B" font-size="9">History continuity</text>

  <rect x="768" y="374" width="152" height="88" rx="5" fill="#071528"/>
  <text x="844" y="394" text-anchor="middle" fill="#3B82F6" font-size="10" font-weight="bold">ML-DSA-65</text>
  <text x="844" y="408" text-anchor="middle" fill="#64748B" font-size="9">PQC Signature</text>
  <text x="844" y="422" text-anchor="middle" fill="#64748B" font-size="9">NIST 2024 standard</text>
  <text x="844" y="436" text-anchor="middle" fill="#64748B" font-size="9">Quantum-resistant</text>
  <text x="844" y="450" text-anchor="middle" fill="#64748B" font-size="9">Mathematically binding</text>

  <!-- Guarantee banner -->
  <rect x="60" y="496" width="880" height="50" rx="8" fill="#061A0A" stroke="#10B981" stroke-width="1.5"/>
  <text x="500" y="518" text-anchor="middle" fill="#10B981" font-size="13" font-weight="bold">✓  Irrefutable before any court · Any jurisdiction · Any future technology</text>
  <text x="500" y="537" text-anchor="middle" fill="#475569" font-size="10">Post-quantum signed · Cross-chain verified · Forensically preserved · Audit-ready in minutes</text>

  <!-- Bottom bar -->
  <rect x="0" y="588" width="1000" height="32" fill="#050D18"/>
  <text x="500" y="608" text-anchor="middle" fill="#475569" font-size="10" letter-spacing="2">OMNIX QUANTUM  ·  omnixquantum.net  ·  Post-Quantum Forensic Evidence Standard</text>
</svg>
