<svg viewBox="0 0 1000 580" xmlns="http://www.w3.org/2000/svg" font-family="'Georgia', serif" overflow="hidden">
  <defs>
    <linearGradient id="bg6" x1="0%" y1="0%" x2="100%" y2="100%">
      <stop offset="0%" style="stop-color:#050D18"/>
      <stop offset="100%" style="stop-color:#0A1628"/>
    </linearGradient>
    <linearGradient id="threatZone" x1="0%" y1="0%" x2="100%" y2="0%">
      <stop offset="0%" style="stop-color:#0A1628;stop-opacity:0"/>
      <stop offset="100%" style="stop-color:#1a0808;stop-opacity:1"/>
    </linearGradient>
  </defs>

  <rect width="1000" height="580" fill="url(#bg6)"/>
  <rect x="0" y="0" width="1000" height="3" fill="#C9A227"/>

  <!-- Title -->
  <text x="500" y="48" text-anchor="middle" fill="#E5E4E2" font-size="24" font-weight="bold" letter-spacing="4">THE QUANTUM THREAT TIMELINE</text>
  <text x="500" y="72" text-anchor="middle" fill="#94A3B8" font-size="12" letter-spacing="3">WHY POST-QUANTUM CRYPTOGRAPHY IS AN ENGINEERING DECISION FOR TODAY</text>
  <line x1="60" y1="85" x2="940" y2="85" stroke="#C9A227" stroke-width="1" opacity="0.5"/>

  <!-- Threat zone background gradient -->
  <rect x="480" y="100" width="480" height="360" fill="url(#threatZone)" rx="4"/>

  <!-- Timeline axis -->
  <line x1="80" y1="300" x2="950" y2="300" stroke="#1E293B" stroke-width="2"/>
  <polygon points="948,294 960,300 948,306" fill="#1E293B"/>

  <!-- ===== YEAR MARKERS ===== -->
  <!-- 2024: x=130 | 2026: x=260 | 2028: x=390 | 2030: x=580 | 2032: x=720 | 2035: x=880 -->

  <circle cx="130" cy="300" r="7" fill="#C9A227"/>
  <text x="130" y="325" text-anchor="middle" fill="#94A3B8" font-size="11">2024</text>

  <circle cx="260" cy="300" r="7" fill="#C9A227"/>
  <text x="260" y="325" text-anchor="middle" fill="#94A3B8" font-size="11">2026</text>

  <circle cx="390" cy="300" r="7" fill="#F59E0B"/>
  <text x="390" y="325" text-anchor="middle" fill="#94A3B8" font-size="11">2028</text>

  <circle cx="580" cy="300" r="7" fill="#EF4444"/>
  <text x="580" y="325" text-anchor="middle" fill="#94A3B8" font-size="11">2030</text>

  <circle cx="720" cy="300" r="7" fill="#EF4444"/>
  <text x="720" y="325" text-anchor="middle" fill="#94A3B8" font-size="11">2032</text>

  <circle cx="880" cy="300" r="10" fill="#EF4444" stroke="#ff4444" stroke-width="2"/>
  <text x="880" y="325" text-anchor="middle" fill="#EF4444" font-size="11" font-weight="bold">2035+</text>

  <!-- NOW marker -->
  <line x1="155" y1="180" x2="155" y2="298" stroke="#C9A227" stroke-width="1.5" stroke-dasharray="5,3"/>
  <rect x="118" y="165" width="74" height="22" rx="4" fill="#0A1628" stroke="#C9A227" stroke-width="1"/>
  <text x="155" y="181" text-anchor="middle" fill="#C9A227" font-size="10" font-weight="bold" letter-spacing="1">TODAY</text>

  <!-- ===== EVENTS ABOVE TIMELINE ===== -->

  <!-- 2024: NIST Standards Published -->
  <line x1="130" y1="293" x2="130" y2="210" stroke="#10B981" stroke-width="1" stroke-dasharray="3,2"/>
  <rect x="40" y="148" width="178" height="58" rx="6" fill="#071512" stroke="#10B981" stroke-width="1.5"/>
  <text x="129" y="168" text-anchor="middle" fill="#10B981" font-size="11" font-weight="bold">NIST PQC Standards</text>
  <text x="129" y="185" text-anchor="middle" fill="#94A3B8" font-size="9">ML-DSA-65 published</text>
  <text x="129" y="200" text-anchor="middle" fill="#64748B" font-size="9">Migration window opens</text>

  <!-- 2026: MiCA + EU AI Act -->
  <line x1="260" y1="293" x2="260" y2="148" stroke="#C9A227" stroke-width="1" stroke-dasharray="3,2"/>
  <rect x="170" y="106" width="178" height="58" rx="6" fill="#0A1400" stroke="#C9A227" stroke-width="1.5"/>
  <text x="259" y="126" text-anchor="middle" fill="#C9A227" font-size="11" font-weight="bold">MiCA · EU AI Act</text>
  <text x="259" y="143" text-anchor="middle" fill="#94A3B8" font-size="9">Full enforcement active</text>
  <text x="259" y="158" text-anchor="middle" fill="#64748B" font-size="9">Governance compliance required</text>

  <!-- 2028: Migration deadline -->
  <line x1="390" y1="293" x2="390" y2="210" stroke="#F59E0B" stroke-width="1" stroke-dasharray="3,2"/>
  <rect x="300" y="148" width="178" height="58" rx="6" fill="#0A0E00" stroke="#F59E0B" stroke-width="1.5"/>
  <text x="389" y="168" text-anchor="middle" fill="#F59E0B" font-size="11" font-weight="bold">Migration Deadline</text>
  <text x="389" y="185" text-anchor="middle" fill="#94A3B8" font-size="9">Last orderly transition window</text>
  <text x="389" y="200" text-anchor="middle" fill="#64748B" font-size="9">3–7 year migration lead time</text>

  <!-- 2030: Q-Day window begins -->
  <line x1="580" y1="293" x2="580" y2="148" stroke="#EF4444" stroke-width="1" stroke-dasharray="3,2"/>
  <rect x="490" y="106" width="178" height="58" rx="6" fill="#1a0808" stroke="#EF4444" stroke-width="1.5"/>
  <text x="579" y="126" text-anchor="middle" fill="#EF4444" font-size="11" font-weight="bold">Q-Day Window Opens</text>
  <text x="579" y="143" text-anchor="middle" fill="#94A3B8" font-size="9">Quantum threat materializing</text>
  <text x="579" y="158" text-anchor="middle" fill="#64748B" font-size="9">Harvest Now · Decrypt Later</text>

  <!-- 2035: Q-Day -->
  <line x1="880" y1="290" x2="880" y2="148" stroke="#EF4444" stroke-width="2" stroke-dasharray="3,2"/>
  <rect x="790" y="106" width="160" height="58" rx="6" fill="#2a0808" stroke="#EF4444" stroke-width="2"/>
  <text x="870" y="126" text-anchor="middle" fill="#EF4444" font-size="14" font-weight="bold">Q-DAY</text>
  <text x="870" y="143" text-anchor="middle" fill="#94A3B8" font-size="9">Classical crypto vulnerable</text>
  <text x="870" y="158" text-anchor="middle" fill="#64748B" font-size="9">RSA · ECDSA broken</text>

  <!-- ===== HARVEST NOW warning (below timeline) ===== -->
  <rect x="430" y="340" width="310" height="42" rx="6" fill="#1a0808" stroke="#EF4444" stroke-width="1" stroke-dasharray="4,2"/>
  <text x="585" y="358" text-anchor="middle" fill="#EF4444" font-size="11" font-weight="bold">⚠  Harvest Now · Decrypt Later</text>
  <text x="585" y="374" text-anchor="middle" fill="#94A3B8" font-size="9">Encrypted records captured today · decrypted when Q-Day arrives</text>

  <!-- ===== STATUS PANELS ===== -->
  <rect x="60" y="408" width="400" height="100" rx="10" fill="#071512" stroke="#10B981" stroke-width="2"/>
  <text x="260" y="432" text-anchor="middle" fill="#10B981" font-size="13" font-weight="bold">✓  OMNIX QUANTUM — PQC READY</text>
  <line x1="80" y1="442" x2="440" y2="442" stroke="#1E293B" stroke-width="1"/>
  <text x="260" y="462" text-anchor="middle" fill="#94A3B8" font-size="10">ML-DSA-65 on every decision · every receipt · every override</text>
  <text x="260" y="480" text-anchor="middle" fill="#94A3B8" font-size="10">Records valid today · valid in 2035 · valid after Q-Day</text>
  <text x="260" y="498" text-anchor="middle" fill="#475569" font-size="9">Migration already complete · zero transition risk</text>

  <rect x="540" y="408" width="400" height="100" rx="10" fill="#1a0808" stroke="#EF4444" stroke-width="2"/>
  <text x="740" y="432" text-anchor="middle" fill="#EF4444" font-size="13" font-weight="bold">✗  CONVENTIONAL SYSTEMS</text>
  <line x1="560" y1="442" x2="920" y2="442" stroke="#1E293B" stroke-width="1"/>
  <text x="740" y="462" text-anchor="middle" fill="#94A3B8" font-size="10">RSA · ECDSA signatures on records being generated today</text>
  <text x="740" y="480" text-anchor="middle" fill="#94A3B8" font-size="10">Records retroactively vulnerable after Q-Day arrives</text>
  <text x="740" y="498" text-anchor="middle" fill="#475569" font-size="9">Migration cost increases every year of delay</text>

  <!-- Bottom bar -->
  <rect x="0" y="548" width="1000" height="32" fill="#050D18"/>
  <text x="500" y="568" text-anchor="middle" fill="#475569" font-size="10" letter-spacing="2">OMNIX QUANTUM  ·  omnixquantum.net  ·  Post-Quantum Governance Infrastructure</text>
</svg>
